<svg xmlns="http://www.w3.org/2000/svg" width="64" height="64" viewBox="0 0 64 64" version="1.1">
	<path d="M 24.958 7.677 C 21.716 8.499, 17.845 12.928, 16.900 16.896 C 14.685 20.602, 16.277 25.002, 20.480 26.813 C 21.998 27.442, 23.995 27.572, 25.652 27.152 C 26.924 26.573, 28.336 25.120, 29.040 23.662 C 29.922 21.840, 30.138 20.688, 30.116 17.920 C 30.076 12.438, 29.008 8.890, 27.108 7.884 C 26.520 7.556, 25.594 7.424, 24.958 7.677 M 37.504 7.664 C 36.156 8.120, 35.281 9.202, 34.637 11.422 C 34.180 12.996, 33.896 15.488, 33.880 18.048 C 33.864 20.676, 34.094 21.874, 34.960 23.662 C 35.656 25.104, 37.068 26.564, 38.348 27.166 C 39.168 27.553, 39.292 27.581, 40.576 27.584 C 41.866 27.586, 42.000 27.562, 42.928 27.101 C 44.660 26.276, 45.982 24.673, 46.728 22.498 C 47.700 19.666, 47.544 17.244, 46.215 14.528 C 44.420 10.856, 41.070 7.858, 38.504 7.621 C 38.066 7.582, 37.680 7.604, 37.504 7.664 M 11.096 22.066 C 9.321 22.722, 7.914 24.757, 7.268 27.232 C 6.912 28.634, 6.992 30.560, 7.453 31.646 C 8.310 33.612, 10.524 35.445, 12.836 36.148 C 14.053 36.518, 15.550 36.442, 16.530 35.964 C 18.896 34.806, 20.073 31.540, 19.258 28.082 C 18.437 24.588, 15.560 19.318, 13.420 18.497 C 12.520 18.168, 11.732 18.074, 11.096 22.066 M 51.104 22.127 C 49.440 22.703, 47.730 24.891, 46.148 27.540 C 44.560 30.204, 44.104 32.750, 44.724 35.088 C 45.117 36.583, 46.094 38.329, 47.460 39.000 C 48.450 39.481, 49.939 39.558, 51.156 39.188 C 53.468 38.485, 55.682 36.652, 56.539 34.686 C 57.008 33.578, 57.088 31.670, 56.721 30.254 C 56.060 27.769, 54.656 22.062, 52.888 21.407 C 52.288 21.174, 51.648 21.185, 51.104 22.127 M 29.840 28.613 C 29.390 28.792, 28.474 29.216, 27.804 29.547 C 26.786 30.040, 26.404 30.318, 25.476 31.244 C 24.800 31.920, 24.101 32.908, 23.758 33.523 C 22.424 35.821, 21.164 37.337, 18.196 39.306 C 16.850 40.296, 16.192 40.946, 15.492 42.629 C 13.414 46.685, 14.896 51.452, 19.003 53.446 C 20.704 54.272, 22.078 54.571, 24.192 54.575 C 26.100 54.578, 26.742 54.477, 29.066 53.820 C 30.620 53.440, 31.024 53.376, 32.000 53.376 C 32.976 53.376, 33.380 53.440, 34.934 53.820 C 37.252 54.476, 37.898 54.578, 39.808 54.573 C 41.176 54.571, 41.774 54.514, 42.688 54.284 C 46.827 53.245, 49.412 50.384, 49.430 46.820 C 49.446 43.744, 47.786 40.875, 44.660 38.576 C 42.748 37.172, 41.454 35.618, 40.370 32.960 C 40.029 32.289, 39.573 31.737, 38.888 31.049 C 38.068 30.226, 37.627 29.966, 36.632 29.387 C 35.968 29.058, 35.059 28.792, 34.598 28.672 C 33.504 28.376, 30.926 28.378, 29.840 28.613" stroke="none" fill="#dd9b1a" fill-rule="evenodd"/>
</svg>