<svg xmlns="http://www.w3.org/2000/svg" width="500" height="500" viewBox="0 0 500 500" version="1.1">
	<path d="M 194.982 59.982 C 169.653 66.394, 139.413 100.992, 132.036 132 C 125.149 160.948, 137.553 195.330, 159.994 209.496 C 171.871 216.994, 187.468 218.008, 200.407 212.124 C 210.344 207.605, 221.370 196.252, 226.875 184.870 C 233.763 170.630, 235.450 161.629, 235.287 140 C 234.965 97.177, 226.622 69.460, 211.776 61.886 C 207.188 59.545, 199.949 58.724, 194.982 59.982 M 292.994 59.879 C 282.072 63.441, 275.633 71.884, 270.604 89.237 C 267.041 101.534, 264.817 121.002, 264.692 141 C 264.564 161.539, 266.360 170.885, 273.125 184.870 C 278.568 196.124, 289.603 207.532, 299.593 212.233 C 306.009 215.253, 307.246 215.484, 317 215.492 C 327.085 215.500, 327.812 215.351, 335.381 211.737 C 348.906 205.279, 359.230 192.767, 365.065 175.761 C 372.656 153.638, 371.438 134.743, 361.052 113.500 C 347.029 84.817, 320.856 61.377, 300.808 59.546 C 297.889 59.280, 294.372 59.430, 292.994 59.879 M 86.698 172.391 C 72.833 177.529, 61.835 194.668, 56.789 219 C 54 232.452, 54.630 251.254, 58.239 262.241 C 64.927 282.601, 82.228 300.671, 100.287 306.156 C 109.813 309.049, 121.478 308.469, 129.142 304.719 C 147.644 295.667, 156.821 271.414, 151.497 245.640 C 146.119 219.604, 121.570 182.186, 104.841 174.527 C 97.813 171.310, 91.592 170.578, 86.698 172.391 M 399.300 172.862 C 386.244 177.373, 372.885 191.952, 360.537 215.164 C 348.136 238.474, 344.569 255.866, 348.440 274.131 C 351.237 287.324, 360.113 299.462, 370.782 304.682 C 378.526 308.470, 390.144 309.062, 399.713 306.156 C 417.772 300.671, 435.073 282.601, 441.761 262.241 C 445.407 251.142, 446.005 232.418, 443.147 218.868 C 437.973 194.333, 427.054 177.349, 413.302 172.444 C 408.238 170.637, 405.502 170.719, 399.300 172.862 M 233.121 223.543 C 229.613 224.304, 222.459 227.011, 217.223 229.558 C 209.266 233.429, 206.278 235.610, 199.022 242.844 C 193.753 248.099, 188.483 254.598, 185.611 259.385 C 175.195 276.743, 165.352 287.956, 142.155 308.888 C 131.646 318.371, 126.500 324.868, 121.035 335.554 C 104.787 367.327, 116.373 401.973, 148.456 417.546 C 161.748 423.997, 172.487 426.331, 189 426.355 C 203.904 426.376, 208.945 425.598, 227.081 420.477 C 237.623 417.500, 240.921 417, 250 417 C 259.079 417, 262.377 417.500, 272.919 420.477 C 291.037 425.593, 296.088 426.375, 311 426.370 C 321.689 426.366, 326.374 425.894, 333.500 424.104 C 365.834 415.979, 386.029 393.622, 386.173 365.790 C 386.298 341.755, 373.321 319.331, 348.898 301.380 C 333.973 290.410, 323.857 278.264, 314.433 260 C 311.607 254.522, 308.120 250.041, 301.500 243.378 C 293.763 235.592, 291.039 233.577, 282.888 229.612 C 277.636 227.057, 270.225 224.307, 266.419 223.501 C 257.841 221.683, 241.598 221.704, 233.121 223.543" stroke="none" fill="#000000" fill-rule="evenodd"/>
</svg>